<?xml version="1.0" encoding="iso-8859-1"?>
<!-- Generator: Adobe Illustrator 19.0.0, SVG Export Plug-In . SVG Version: 6.00 Build 0)  -->
<svg version="1.1" id="Capa_1" xmlns="http://www.w3.org/2000/svg" xmlns:xlink="http://www.w3.org/1999/xlink" x="0px" y="0px"
	 viewBox="0 0 512.001 512.001" style="enable-background:new 0 0 512.001 512.001;" xml:space="preserve">
<g>
	<g>
		<path d="M420.257,99.681c-0.13-0.64-0.32-1.268-0.57-1.869c-0.25-0.599-0.56-1.178-0.92-1.728c-0.37-0.541-0.79-1.049-1.249-1.52
			c-0.461-0.46-0.97-0.87-1.519-1.238c-0.54-0.36-1.119-0.671-1.72-0.921c-0.609-0.25-1.238-0.439-1.868-0.569
			c-3.259-0.651-6.707,0.41-9.026,2.728c-0.46,0.471-0.88,0.981-1.239,1.52c-0.36,0.549-0.67,1.128-0.92,1.728
			s-0.44,1.229-0.57,1.869c-0.13,0.65-0.199,1.299-0.199,1.959c0,0.65,0.069,1.299,0.199,1.949c0.13,0.64,0.32,1.269,0.57,1.869
			c0.25,0.599,0.56,1.178,0.92,1.728c0.36,0.541,0.78,1.06,1.239,1.52c1.858,1.86,4.437,2.929,7.067,2.929
			c0.649,0,1.308-0.07,1.959-0.201c0.63-0.13,1.259-0.319,1.868-0.569c0.601-0.25,1.18-0.561,1.72-0.92
			c0.55-0.36,1.06-0.78,1.519-1.239c0.46-0.46,0.88-0.981,1.249-1.52c0.36-0.549,0.67-1.128,0.92-1.728
			c0.25-0.599,0.44-1.229,0.57-1.869c0.129-0.65,0.19-1.299,0.19-1.949C420.447,100.98,420.387,100.331,420.257,99.681z"/>
	</g>
</g>
<g>
	<g>
		<path d="M501.918,0h-91.957c-2.645,0-5.183,1.049-7.057,2.916L140.249,264.693l-16.007-16.007c-3.903-3.9-10.23-3.902-14.137,0
			L72.28,286.511c-1.874,1.874-2.928,4.417-2.928,7.068c0,2.651,1.054,5.193,2.928,7.068l25.003,25.003l-40.822,40.822
			c-14.084-8.939-33.013-7.269-45.295,5.012l-0.425,0.426c-14.205,14.206-14.205,37.321,0,51.527l77.91,77.911
			c7.102,7.102,16.43,10.653,25.76,10.653c9.333,0,18.667-3.554,25.775-10.661l0.425-0.426
			c12.275-12.275,13.943-31.203,5.004-45.286l40.823-40.823l25.003,25.003c1.952,1.951,4.51,2.928,7.068,2.928
			c2.559,0,5.116-0.977,7.068-2.928l37.825-37.825c3.903-3.903,3.903-10.232,0-14.137l-16.392-16.392l261.967-261.252
			c1.88-1.875,2.937-4.422,2.937-7.078V9.995C511.913,4.476,507.439,0,501.918,0z M126.468,486.786l-0.424,0.426
			c-6.412,6.412-16.845,6.412-23.257,0L24.877,409.3c-6.412-6.411-6.412-16.844,0.008-23.262l0.425-0.426
			c6.411-6.412,16.843-6.413,23.256,0l77.91,77.911C132.888,469.933,132.888,480.367,126.468,486.786z M132.099,440.873
			l-60.883-60.884l40.203-40.203l60.883,60.882L132.099,440.873z M218.51,418.603L93.484,293.579l23.689-23.689l125.025,125.025
			L218.51,418.603z M491.923,98.975l-259.05,258.343l-31.983-31.984l182.668-182.668c3.903-3.903,3.903-10.232,0-14.136
			c-3.904-3.902-10.231-3.902-14.136,0L186.754,311.199l-32.37-32.37L414.093,19.991h77.83V98.975z"/>
	</g>
</g>
<g>
</g>
<g>
</g>
<g>
</g>
<g>
</g>
<g>
</g>
<g>
</g>
<g>
</g>
<g>
</g>
<g>
</g>
<g>
</g>
<g>
</g>
<g>
</g>
<g>
</g>
<g>
</g>
<g>
</g>
</svg>
